# Blender 4.0.1
# www.blender.org
mtllib senilaDR.mtl
o Cube
v 1.700000 0.100000 -0.000000
v 1.700000 1.900000 -0.000000
v 3.300000 0.100000 -0.000000
v 3.300000 1.900000 -0.000000
v 2.257869 0.727603 5.000000
v 1.700000 0.100000 1.513317
v 2.149035 0.605164 4.933004
v 2.044382 0.487430 4.734591
v 1.947934 0.378926 4.412388
v 1.863396 0.283821 3.978774
v 1.794018 0.205770 3.450414
v 1.742465 0.147774 2.847612
v 1.710719 0.112059 2.193535
v 2.257869 1.272397 5.000000
v 1.700000 1.900000 1.513317
v 2.149035 1.394836 4.933004
v 2.044382 1.512570 4.734591
v 1.947934 1.621075 4.412388
v 1.863396 1.716179 3.978774
v 1.794018 1.794230 3.450414
v 1.742465 1.852226 2.847612
v 1.710719 1.887941 2.193535
v 2.742131 0.727603 5.000000
v 3.300000 0.100000 1.513317
v 2.850965 0.605164 4.933004
v 2.955618 0.487430 4.734591
v 3.052066 0.378926 4.412388
v 3.136604 0.283821 3.978774
v 3.205982 0.205770 3.450414
v 3.257535 0.147774 2.847612
v 3.289280 0.112059 2.193535
v 2.742131 1.272397 5.000000
v 3.300000 1.900000 1.513317
v 2.850965 1.394836 4.933004
v 2.955618 1.512570 4.734591
v 3.052066 1.621075 4.412388
v 3.136604 1.716179 3.978774
v 3.205982 1.794230 3.450414
v 3.257535 1.852226 2.847612
v 3.289280 1.887941 2.193535
v 3.300000 0.100000 -0.000000
v 3.300000 1.900000 -0.000000
v 1.700000 0.100000 -0.000000
v 1.700000 1.900000 -0.000000
v 2.742131 0.727603 5.000000
v 3.300000 0.100000 1.513317
v 2.850965 0.605164 4.933004
v 2.955618 0.487430 4.734591
v 3.052066 0.378926 4.412388
v 3.136604 0.283821 3.978774
v 3.205982 0.205770 3.450414
v 3.257535 0.147774 2.847612
v 3.289280 0.112059 2.193535
v 2.742131 1.272397 5.000000
v 3.300000 1.900000 1.513317
v 2.850965 1.394836 4.933004
v 2.955618 1.512570 4.734591
v 3.052066 1.621075 4.412388
v 3.136604 1.716179 3.978774
v 3.205982 1.794230 3.450414
v 3.257535 1.852226 2.847612
v 3.289280 1.887941 2.193535
v 2.257869 0.727603 5.000000
v 1.700000 0.100000 1.513317
v 2.149035 0.605164 4.933004
v 2.044382 0.487430 4.734591
v 1.947934 0.378926 4.412388
v 1.863396 0.283821 3.978774
v 1.794018 0.205770 3.450414
v 1.742465 0.147774 2.847612
v 1.710719 0.112059 2.193535
v 2.257869 1.272397 5.000000
v 1.700000 1.900000 1.513317
v 2.149035 1.394836 4.933004
v 2.044382 1.512570 4.734591
v 1.947934 1.621075 4.412388
v 1.863396 1.716179 3.978774
v 1.794018 1.794230 3.450414
v 1.742465 1.852226 2.847612
v 1.710719 1.887941 2.193535
v 2.257869 0.727603 -5.000000
v 1.700000 0.100000 -1.513317
v 2.149035 0.605164 -4.933004
v 2.044382 0.487430 -4.734591
v 1.947934 0.378926 -4.412388
v 1.863396 0.283821 -3.978774
v 1.794018 0.205770 -3.450414
v 1.742465 0.147774 -2.847612
v 1.710719 0.112059 -2.193535
v 2.257869 1.272397 -5.000000
v 1.700000 1.900000 -1.513317
v 2.149035 1.394836 -4.933004
v 2.044382 1.512570 -4.734591
v 1.947934 1.621075 -4.412388
v 1.863396 1.716179 -3.978774
v 1.794018 1.794230 -3.450414
v 1.742465 1.852226 -2.847612
v 1.710719 1.887941 -2.193535
v 2.742131 0.727603 -5.000000
v 3.300000 0.100000 -1.513317
v 2.850965 0.605164 -4.933004
v 2.955618 0.487430 -4.734591
v 3.052066 0.378926 -4.412388
v 3.136604 0.283821 -3.978774
v 3.205982 0.205770 -3.450414
v 3.257535 0.147774 -2.847612
v 3.289280 0.112059 -2.193535
v 2.742131 1.272397 -5.000000
v 3.300000 1.900000 -1.513317
v 2.850965 1.394836 -4.933004
v 2.955618 1.512570 -4.734591
v 3.052066 1.621075 -4.412388
v 3.136604 1.716179 -3.978774
v 3.205982 1.794230 -3.450414
v 3.257535 1.852226 -2.847612
v 3.289280 1.887941 -2.193535
v 2.742131 0.727603 -5.000000
v 3.300000 0.100000 -1.513317
v 2.850965 0.605164 -4.933004
v 2.955618 0.487430 -4.734591
v 3.052066 0.378926 -4.412388
v 3.136604 0.283821 -3.978774
v 3.205982 0.205770 -3.450414
v 3.257535 0.147774 -2.847612
v 3.289280 0.112059 -2.193535
v 2.742131 1.272397 -5.000000
v 3.300000 1.900000 -1.513317
v 2.850965 1.394836 -4.933004
v 2.955618 1.512570 -4.734591
v 3.052066 1.621075 -4.412388
v 3.136604 1.716179 -3.978774
v 3.205982 1.794230 -3.450414
v 3.257535 1.852226 -2.847612
v 3.289280 1.887941 -2.193535
v 2.257869 0.727603 -5.000000
v 1.700000 0.100000 -1.513317
v 2.149035 0.605164 -4.933004
v 2.044382 0.487430 -4.734591
v 1.947934 0.378926 -4.412388
v 1.863396 0.283821 -3.978774
v 1.794018 0.205770 -3.450414
v 1.742465 0.147774 -2.847612
v 1.710719 0.112059 -2.193535
v 2.257869 1.272397 -5.000000
v 1.700000 1.900000 -1.513317
v 2.149035 1.394836 -4.933004
v 2.044382 1.512570 -4.734591
v 1.947934 1.621075 -4.412388
v 1.863396 1.716179 -3.978774
v 1.794018 1.794230 -3.450414
v 1.742465 1.852226 -2.847612
v 1.710719 1.887941 -2.193535
vn -0.0000 -1.0000 -0.0000
vn -0.0000 1.0000 -0.0000
vn 1.0000 -0.0000 -0.0000
vn -0.0000 -0.0000 1.0000
vn -0.5242 -0.0000 0.8516
vn -0.8845 -0.0000 0.4665
vn -0.9580 -0.0000 0.2868
vn -0.9815 -0.0000 0.1914
vn -0.9915 -0.0000 0.1302
vn -0.9964 -0.0000 0.0852
vn -0.9988 -0.0000 0.0485
vn -0.9999 -0.0000 0.0158
vn 0.5242 -0.0000 0.8516
vn 0.8845 -0.0000 0.4665
vn 0.9580 -0.0000 0.2868
vn 0.9815 -0.0000 0.1914
vn 0.9915 -0.0000 0.1302
vn 0.9964 -0.0000 0.0852
vn 0.9988 -0.0000 0.0485
vn 0.9999 -0.0000 0.0158
vn -0.0000 -0.9998 0.0177
vn -0.0000 -0.9985 0.0545
vn -0.0000 -0.9954 0.0958
vn -0.0000 -0.9893 0.1461
vn -0.0000 -0.9768 0.2142
vn -0.0000 -0.9477 0.3191
vn -0.0000 -0.8600 0.5103
vn -0.0000 -0.4800 0.8773
vn -0.0000 0.9998 0.0177
vn -0.0000 0.9985 0.0545
vn -0.0000 0.9954 0.0958
vn -0.0000 0.9893 0.1461
vn -0.0000 0.9768 0.2142
vn -0.0000 0.9477 0.3191
vn -0.0000 0.8600 0.5103
vn -0.0000 0.4800 0.8773
vn -1.0000 -0.0000 -0.0000
vn -0.0000 -0.0000 -1.0000
vn -0.5242 -0.0000 -0.8516
vn -0.8845 -0.0000 -0.4665
vn -0.9580 -0.0000 -0.2868
vn -0.9815 -0.0000 -0.1914
vn -0.9915 -0.0000 -0.1302
vn -0.9964 -0.0000 -0.0852
vn -0.9988 -0.0000 -0.0485
vn -0.9999 -0.0000 -0.0158
vn 0.5242 -0.0000 -0.8516
vn 0.8845 -0.0000 -0.4665
vn 0.9580 -0.0000 -0.2868
vn 0.9815 -0.0000 -0.1914
vn 0.9915 -0.0000 -0.1302
vn 0.9964 -0.0000 -0.0852
vn 0.9988 -0.0000 -0.0485
vn 0.9999 -0.0000 -0.0158
vn -0.0000 -0.9998 -0.0177
vn -0.0000 -0.9985 -0.0545
vn -0.0000 -0.9954 -0.0958
vn -0.0000 -0.9893 -0.1461
vn -0.0000 -0.9768 -0.2142
vn -0.0000 -0.9477 -0.3191
vn -0.0000 -0.8600 -0.5103
vn -0.0000 -0.4800 -0.8773
vn -0.0000 0.9998 -0.0177
vn -0.0000 0.9985 -0.0545
vn -0.0000 0.9954 -0.0958
vn -0.0000 0.9893 -0.1461
vn -0.0000 0.9768 -0.2142
vn -0.0000 0.9477 -0.3191
vn -0.0000 0.8600 -0.5103
vn -0.0000 0.4800 -0.8773
vt 0.125000 0.625000
vt 0.375000 0.625000
vt 0.375000 0.662833
vt 0.125000 0.662833
vt 0.625000 0.625000
vt 0.875000 0.625000
vt 0.875000 0.662833
vt 0.625000 0.662833
vt 0.462167 0.837167
vt 0.537833 0.837167
vt 0.537833 0.912833
vt 0.462167 0.912833
vt 0.554838 0.929838
vt 0.445162 0.929838
vt 0.571190 0.946190
vt 0.428810 0.946190
vt 0.586260 0.961260
vt 0.413740 0.961260
vt 0.599469 1.000000
vt 0.400531 1.000000
vt 0.400531 0.000000
vt 0.599469 0.000000
vt 0.610310 0.038740
vt 0.389690 0.038740
vt 0.618365 0.053810
vt 0.381635 0.053810
vt 0.623325 0.070162
vt 0.376675 0.070162
vt 0.625000 0.087167
vt 0.375000 0.087167
vt 0.445162 0.820162
vt 0.554838 0.820162
vt 0.428810 0.803810
vt 0.571190 0.803810
vt 0.413740 0.788740
vt 0.586260 0.788740
vt 0.400531 0.750000
vt 0.599469 0.750000
vt 0.389690 0.711260
vt 0.610310 0.711260
vt 0.381635 0.696190
vt 0.618365 0.696190
vt 0.376675 0.679838
vt 0.623325 0.679838
vt 0.373325 0.679838
vt 0.126675 0.679838
vt 0.368365 0.696190
vt 0.131635 0.696190
vt 0.360310 0.711260
vt 0.139690 0.711260
vt 0.349469 0.750000
vt 0.150531 0.750000
vt 0.375000 0.974469
vt 0.375000 0.775531
vt 0.873325 0.679838
vt 0.626675 0.679838
vt 0.868365 0.696190
vt 0.631635 0.696190
vt 0.860310 0.711260
vt 0.639690 0.711260
vt 0.849469 0.750000
vt 0.650531 0.750000
vt 0.625000 0.775531
vt 0.625000 0.974469
vt 0.625000 0.125000
vt 0.375000 0.125000
s 0
f 1/1/1 3/2/1 24/3/1 6/4/1
f 4/5/2 2/6/2 15/7/2 33/8/2
f 3/2/3 4/5/3 33/8/3 24/3/3
f 23/9/4 32/10/4 14/11/4 5/12/4
f 5/12/5 14/11/5 16/13/5 7/14/5
f 7/14/6 16/13/6 17/15/6 8/16/6
f 8/16/7 17/15/7 18/17/7 9/18/7
f 9/18/8 18/17/8 19/19/8 10/20/8
f 10/21/9 19/22/9 20/23/9 11/24/9
f 11/24/10 20/23/10 21/25/10 12/26/10
f 12/26/11 21/25/11 22/27/11 13/28/11
f 13/28/12 22/27/12 15/29/12 6/30/12
f 32/10/13 23/9/13 25/31/13 34/32/13
f 34/32/14 25/31/14 26/33/14 35/34/14
f 35/34/15 26/33/15 27/35/15 36/36/15
f 36/36/16 27/35/16 28/37/16 37/38/16
f 37/38/17 28/37/17 29/39/17 38/40/17
f 38/40/18 29/39/18 30/41/18 39/42/18
f 39/42/19 30/41/19 31/43/19 40/44/19
f 40/44/20 31/43/20 24/3/20 33/8/20
f 6/4/21 24/3/21 31/45/21 13/46/21
f 13/46/22 31/45/22 30/47/22 12/48/22
f 12/48/23 30/47/23 29/49/23 11/50/23
f 11/50/24 29/49/24 28/51/24 10/52/24
f 10/53/25 28/54/25 27/35/25 9/18/25
f 9/18/26 27/35/26 26/33/26 8/16/26
f 8/16/27 26/33/27 25/31/27 7/14/27
f 7/14/28 25/31/28 23/9/28 5/12/28
f 33/8/29 15/7/29 22/55/29 40/56/29
f 40/56/30 22/55/30 21/57/30 39/58/30
f 39/58/31 21/57/31 20/59/31 38/60/31
f 38/60/32 20/59/32 19/61/32 37/62/32
f 37/63/33 19/64/33 18/17/33 36/36/33
f 36/36/34 18/17/34 17/15/34 35/34/34
f 35/34/35 17/15/35 16/13/35 34/32/35
f 34/32/36 16/13/36 14/11/36 32/10/36
f 6/30/37 15/29/37 2/65/37 1/66/37
f 41/1/1 46/4/1 64/3/1 43/2/1
f 44/5/2 73/8/2 55/7/2 42/6/2
f 43/2/37 64/3/37 73/8/37 44/5/37
f 63/9/4 45/12/4 54/11/4 72/10/4
f 45/12/13 47/14/13 56/13/13 54/11/13
f 47/14/14 48/16/14 57/15/14 56/13/14
f 48/16/15 49/18/15 58/17/15 57/15/15
f 49/18/16 50/20/16 59/19/16 58/17/16
f 50/21/17 51/24/17 60/23/17 59/22/17
f 51/24/18 52/26/18 61/25/18 60/23/18
f 52/26/19 53/28/19 62/27/19 61/25/19
f 53/28/20 46/30/20 55/29/20 62/27/20
f 72/10/5 74/32/5 65/31/5 63/9/5
f 74/32/6 75/34/6 66/33/6 65/31/6
f 75/34/7 76/36/7 67/35/7 66/33/7
f 76/36/8 77/38/8 68/37/8 67/35/8
f 77/38/9 78/40/9 69/39/9 68/37/9
f 78/40/10 79/42/10 70/41/10 69/39/10
f 79/42/11 80/44/11 71/43/11 70/41/11
f 80/44/12 73/8/12 64/3/12 71/43/12
f 46/4/21 53/46/21 71/45/21 64/3/21
f 53/46/22 52/48/22 70/47/22 71/45/22
f 52/48/23 51/50/23 69/49/23 70/47/23
f 51/50/24 50/52/24 68/51/24 69/49/24
f 50/53/25 49/18/25 67/35/25 68/54/25
f 49/18/26 48/16/26 66/33/26 67/35/26
f 48/16/27 47/14/27 65/31/27 66/33/27
f 47/14/28 45/12/28 63/9/28 65/31/28
f 73/8/29 80/56/29 62/55/29 55/7/29
f 80/56/30 79/58/30 61/57/30 62/55/30
f 79/58/31 78/60/31 60/59/31 61/57/31
f 78/60/32 77/62/32 59/61/32 60/59/32
f 77/63/33 76/36/33 58/17/33 59/64/33
f 76/36/34 75/34/34 57/15/34 58/17/34
f 75/34/35 74/32/35 56/13/35 57/15/35
f 74/32/36 72/10/36 54/11/36 56/13/36
f 46/30/3 41/66/3 42/65/3 55/29/3
f 1/1/1 82/4/1 100/3/1 3/2/1
f 4/5/2 109/8/2 91/7/2 2/6/2
f 3/2/3 100/3/3 109/8/3 4/5/3
f 99/9/38 81/12/38 90/11/38 108/10/38
f 81/12/39 83/14/39 92/13/39 90/11/39
f 83/14/40 84/16/40 93/15/40 92/13/40
f 84/16/41 85/18/41 94/17/41 93/15/41
f 85/18/42 86/20/42 95/19/42 94/17/42
f 86/21/43 87/24/43 96/23/43 95/22/43
f 87/24/44 88/26/44 97/25/44 96/23/44
f 88/26/45 89/28/45 98/27/45 97/25/45
f 89/28/46 82/30/46 91/29/46 98/27/46
f 108/10/47 110/32/47 101/31/47 99/9/47
f 110/32/48 111/34/48 102/33/48 101/31/48
f 111/34/49 112/36/49 103/35/49 102/33/49
f 112/36/50 113/38/50 104/37/50 103/35/50
f 113/38/51 114/40/51 105/39/51 104/37/51
f 114/40/52 115/42/52 106/41/52 105/39/52
f 115/42/53 116/44/53 107/43/53 106/41/53
f 116/44/54 109/8/54 100/3/54 107/43/54
f 82/4/55 89/46/55 107/45/55 100/3/55
f 89/46/56 88/48/56 106/47/56 107/45/56
f 88/48/57 87/50/57 105/49/57 106/47/57
f 87/50/58 86/52/58 104/51/58 105/49/58
f 86/53/59 85/18/59 103/35/59 104/54/59
f 85/18/60 84/16/60 102/33/60 103/35/60
f 84/16/61 83/14/61 101/31/61 102/33/61
f 83/14/62 81/12/62 99/9/62 101/31/62
f 109/8/63 116/56/63 98/55/63 91/7/63
f 116/56/64 115/58/64 97/57/64 98/55/64
f 115/58/65 114/60/65 96/59/65 97/57/65
f 114/60/66 113/62/66 95/61/66 96/59/66
f 113/63/67 112/36/67 94/17/67 95/64/67
f 112/36/68 111/34/68 93/15/68 94/17/68
f 111/34/69 110/32/69 92/13/69 93/15/69
f 110/32/70 108/10/70 90/11/70 92/13/70
f 82/30/37 1/66/37 2/65/37 91/29/37
f 41/1/1 43/2/1 136/3/1 118/4/1
f 44/5/2 42/6/2 127/7/2 145/8/2
f 43/2/37 44/5/37 145/8/37 136/3/37
f 135/9/38 144/10/38 126/11/38 117/12/38
f 117/12/47 126/11/47 128/13/47 119/14/47
f 119/14/48 128/13/48 129/15/48 120/16/48
f 120/16/49 129/15/49 130/17/49 121/18/49
f 121/18/50 130/17/50 131/19/50 122/20/50
f 122/21/51 131/22/51 132/23/51 123/24/51
f 123/24/52 132/23/52 133/25/52 124/26/52
f 124/26/53 133/25/53 134/27/53 125/28/53
f 125/28/54 134/27/54 127/29/54 118/30/54
f 144/10/39 135/9/39 137/31/39 146/32/39
f 146/32/40 137/31/40 138/33/40 147/34/40
f 147/34/41 138/33/41 139/35/41 148/36/41
f 148/36/42 139/35/42 140/37/42 149/38/42
f 149/38/43 140/37/43 141/39/43 150/40/43
f 150/40/44 141/39/44 142/41/44 151/42/44
f 151/42/45 142/41/45 143/43/45 152/44/45
f 152/44/46 143/43/46 136/3/46 145/8/46
f 118/4/55 136/3/55 143/45/55 125/46/55
f 125/46/56 143/45/56 142/47/56 124/48/56
f 124/48/57 142/47/57 141/49/57 123/50/57
f 123/50/58 141/49/58 140/51/58 122/52/58
f 122/53/59 140/54/59 139/35/59 121/18/59
f 121/18/60 139/35/60 138/33/60 120/16/60
f 120/16/61 138/33/61 137/31/61 119/14/61
f 119/14/62 137/31/62 135/9/62 117/12/62
f 145/8/63 127/7/63 134/55/63 152/56/63
f 152/56/64 134/55/64 133/57/64 151/58/64
f 151/58/65 133/57/65 132/59/65 150/60/65
f 150/60/66 132/59/66 131/61/66 149/62/66
f 149/63/67 131/64/67 130/17/67 148/36/67
f 148/36/68 130/17/68 129/15/68 147/34/68
f 147/34/69 129/15/69 128/13/69 146/32/69
f 146/32/70 128/13/70 126/11/70 144/10/70
f 118/30/3 127/29/3 42/65/3 41/66/3
